<svg width="40" height="40" viewBox="0 0 40 40" fill="none" xmlns="http://www.w3.org/2000/svg">
<path d="M31.9152 23.9186L32.3336 24.3857L33.7826 26.0252C34.009 26.2629 34.1887 26.5517 34.3103 26.8728C34.3936 27.0987 34.4399 27.3398 34.447 27.5843C34.4517 27.7674 34.414 27.9487 34.3377 28.1102C34.2882 28.217 34.2276 28.3167 34.1572 28.4072L33.512 29.1373C33.3352 29.3714 33.0875 29.5225 32.8175 29.5611C32.6014 29.5765 32.3853 29.5308 32.1887 29.428C32.0058 29.3319 31.8371 29.2047 31.6883 29.0506C31.5872 28.9477 31.4878 28.8425 31.3903 28.7351L29.3452 26.3748C29.2973 26.3143 29.2391 26.2653 29.1741 26.2308C29.1091 26.1964 29.0386 26.1771 28.9669 26.1742C28.8951 26.1714 28.8236 26.1849 28.7566 26.214C28.6896 26.2432 28.6285 26.2873 28.5769 26.3439L28.4867 26.4614C28.4258 26.5291 28.3774 26.6098 28.3441 26.6988C28.3109 26.7877 28.2935 26.8832 28.293 26.9798C28.2925 27.0764 28.3089 27.1722 28.3412 27.2616C28.3735 27.351 28.421 27.4323 28.4812 27.5008L30.9146 30.1952C31.1135 30.4033 31.2758 30.652 31.393 30.9284C31.487 31.1378 31.5392 31.368 31.5461 31.6027C31.5499 31.7857 31.5123 31.9667 31.4368 32.1286C31.3698 32.2661 31.287 32.393 31.1907 32.506L30.3759 33.4279C30.2046 33.649 29.9742 33.801 29.7198 33.861C29.5194 33.894 29.3149 33.8673 29.1265 33.7836C28.9414 33.7016 28.7717 33.5809 28.6261 33.4279C28.5051 33.302 28.3866 33.1731 28.2707 33.0412L25.7444 30.1303C25.7013 30.0766 25.6491 30.0335 25.5909 30.0035C25.5326 29.9735 25.4695 29.9573 25.4055 29.9559C25.3416 29.9544 25.278 29.9678 25.2187 29.9951C25.1594 30.0224 25.1057 30.0632 25.0608 30.1148L24.8257 30.3839C24.7312 30.4946 24.6789 30.6428 24.6799 30.7966C24.681 30.9505 24.7353 31.0977 24.8312 31.2068L27.1606 33.7867C27.3825 34.0234 27.569 34.2992 27.7129 34.6034C27.8119 34.8135 27.868 35.0461 27.877 35.284C27.8819 35.469 27.8442 35.6524 27.7676 35.816C27.6996 35.9517 27.6159 36.0765 27.5188 36.1872L26.8735 36.9204C26.2611 37.535 25.5594 37.3937 24.7683 36.4966L22.3513 33.8238C22.2901 33.7539 22.2071 33.714 22.1201 33.7128C22.0331 33.7117 21.9492 33.7493 21.8865 33.8177L21.5694 34.1084C21.5214 34.1608 21.4834 34.2237 21.4578 34.2934C21.4322 34.363 21.4196 34.4379 21.4206 34.5133C21.4216 34.5887 21.4363 34.6631 21.4638 34.7318C21.4913 34.8005 21.5309 34.8621 21.5803 34.9127L23.1661 36.7224C23.3882 36.9456 23.5503 37.235 23.6336 37.5576C23.6842 37.7879 23.687 38.0282 23.6418 38.2599C23.5949 38.4952 23.4961 38.7134 23.3548 38.894L22.7095 39.6241C22.5221 39.8412 22.2715 39.9741 22.0041 39.9984C21.7932 40.0083 21.5825 39.9726 21.3835 39.8932C21.1519 39.7909 20.9428 39.6325 20.771 39.4292L7.66097 24.5992C7.0167 23.8807 6.44454 23.084 5.95489 22.2234C5.53761 21.4937 5.19804 20.7108 4.94327 19.8909C4.72692 19.1832 4.59095 18.4473 4.53862 17.7008C4.48931 17.044 4.52896 16.3827 4.65619 15.7395L2.34586 13.1255L0 10.626L9.24675 0L14.0861 5.58369L11.8496 8.11104L11.8004 8.17291L11.7676 8.21313C11.3207 8.76905 10.985 9.42744 10.7833 10.1434C10.5849 10.8516 10.5307 11.6014 10.6247 12.3367C10.7623 13.3825 11.205 14.3461 11.8824 15.0744L12.5441 15.8199L12.6042 15.8849L12.6453 15.9282C13.1544 16.4426 13.7679 16.807 14.4313 16.9888C15.0948 17.1707 15.7876 17.1644 16.4484 16.9707C17.2379 16.7317 17.9533 16.2499 18.5154 15.5786L21.5393 12.1542L22.6111 13.373L22.622 13.3947L31.9098 23.9062L31.9152 23.9186ZM35.5789 15.9684C35.603 16.3288 35.603 16.6907 35.5789 17.0511C35.5267 17.787 35.3926 18.5125 35.1798 19.2104C34.9324 20.0116 34.602 20.7769 34.1955 21.4902C34.099 21.6622 33.9988 21.8314 33.8947 21.9976L33.7416 21.8305L22.458 9.04526C22.3375 8.9085 22.1945 8.79993 22.0369 8.72575C21.8794 8.65157 21.7105 8.61324 21.5399 8.61296C21.3692 8.61267 21.2002 8.65043 21.0425 8.72407C20.8848 8.79772 20.7414 8.90581 20.6206 9.04217L16.6808 13.5029C16.4486 13.7952 16.1497 14.0093 15.8168 14.1216C15.5731 14.1965 15.3168 14.2029 15.0704 14.1402L15.0567 14.1371C14.7968 14.0669 14.5569 13.9232 14.3595 13.7195L13.7198 12.9987C13.4486 12.7201 13.2661 12.3484 13.2003 11.9407C13.1582 11.6399 13.1769 11.3321 13.255 11.0405L13.2632 11.0189C13.3545 10.7039 13.5047 10.4149 13.7034 10.1713L13.7116 10.162L18.1408 5.1506C18.6063 4.62505 19.163 4.21428 19.7758 3.94416C20.3975 3.66978 21.0483 3.48882 21.7116 3.4059C22.1618 3.34812 22.6145 3.3192 23.0677 3.31928C23.2975 3.31937 23.5272 3.32659 23.7567 3.34093C24.9745 3.41644 26.1856 3.59638 27.3794 3.87919L30.7943 0.0185609L40 10.4342L35.6528 15.3497C35.5901 15.5478 35.5659 15.7588 35.5817 15.9684H35.5789Z" fill="#F4C716"/>
</svg>
