<svg width="42" height="42" viewBox="0 0 42 42" fill="none" xmlns="http://www.w3.org/2000/svg">
<path d="M29 3C29 2.46957 28.7893 1.96086 28.4142 1.58579C28.0391 1.21071 27.5304 1 27 1H15C14.4696 1 13.9609 1.21071 13.5858 1.58579C13.2107 1.96086 13 2.46957 13 3V13H3C2.46957 13 1.96086 13.2107 1.58579 13.5858C1.21071 13.9609 1 14.4696 1 15V27C1 27.5304 1.21071 28.0391 1.58579 28.4142C1.96086 28.7893 2.46957 29 3 29H13V39C13 39.5304 13.2107 40.0391 13.5858 40.4142C13.9609 40.7893 14.4696 41 15 41H27C27.5304 41 28.0391 40.7893 28.4142 40.4142C28.7893 40.0391 29 39.5304 29 39V29H39C39.5304 29 40.0391 28.7893 40.4142 28.4142C40.7893 28.0391 41 27.5304 41 27V15C41 14.4696 40.7893 13.9609 40.4142 13.5858C40.0391 13.2107 39.5304 13 39 13H29V3Z" stroke="#F4C716" stroke-width="2" stroke-linecap="round" stroke-linejoin="round"/>
</svg>
