<svg width="83" height="83" viewBox="0 0 83 83" fill="none" xmlns="http://www.w3.org/2000/svg">
<rect width="83" height="83" rx="41.5" fill="black"/>
<line x1="1" y1="40.5" x2="82" y2="40.5" stroke="white"/>
<line x1="12.8703" y1="69.7147" x2="70.146" y2="12.439" stroke="white"/>
<line x1="13.3536" y1="12.6464" x2="70.6292" y2="69.9221" stroke="white"/>
<line x1="41.5" y1="82" x2="41.5" y2="1" stroke="white"/>
<circle cx="42" cy="41" r="20" fill="black"/>
<path d="M42.88 31.808V48.448C42.88 49.1947 42.944 49.7387 43.072 50.08C43.2 50.4213 43.424 50.656 43.744 50.784C44.0853 50.8907 44.6187 50.9547 45.344 50.976V52.096L44.704 52.064C43.5307 51.9787 42.528 51.936 41.696 51.936C40.8853 51.936 39.9147 51.9787 38.784 52.064L38.048 52.096V50.976C38.7733 50.9547 39.296 50.8907 39.616 50.784C39.9573 50.656 40.192 50.4213 40.32 50.08C40.448 49.7387 40.512 49.1947 40.512 48.448V34.528C40.512 34.3573 40.448 34.2187 40.32 34.112C40.2133 33.984 40.0747 33.9413 39.904 33.984L37.504 34.336V33.376L42.336 31.584L42.88 31.808Z" fill="white"/>
</svg>
