<svg width="83" height="83" viewBox="0 0 83 83" fill="none" xmlns="http://www.w3.org/2000/svg">
<rect width="83" height="83" rx="41.5" fill="black"/>
<line x1="1" y1="40.5" x2="82" y2="40.5" stroke="white"/>
<line x1="12.8703" y1="69.7147" x2="70.146" y2="12.439" stroke="white"/>
<line x1="13.3536" y1="12.6464" x2="70.6292" y2="69.9221" stroke="white"/>
<line x1="41.5" y1="82" x2="41.5" y2="1" stroke="white"/>
<circle cx="42" cy="41" r="20" fill="black"/>
<path d="M40.664 31.584C42.3067 31.584 43.5653 31.9467 44.44 32.672C45.336 33.376 45.784 34.4 45.784 35.744C45.784 36.896 45.4427 37.8453 44.76 38.592C44.0773 39.3387 43.256 39.9253 42.296 40.352V40.48C43.6613 40.8853 44.7067 41.4827 45.432 42.272C46.1573 43.0613 46.52 44.128 46.52 45.472C46.52 46.9227 46.0293 48.16 45.048 49.184C44.088 50.208 42.84 50.9867 41.304 51.52C39.768 52.032 38.1467 52.32 36.44 52.384L36.024 51.392C38.392 51.1573 40.312 50.5173 41.784 49.472C43.2773 48.4267 44.024 47.0187 44.024 45.248C44.024 43.9253 43.48 42.9333 42.392 42.272C41.304 41.6107 39.9067 41.248 38.2 41.184V40.384C39.864 40.1493 41.1547 39.6587 42.072 38.912C42.9893 38.1653 43.448 37.248 43.448 36.16C43.448 35.1147 43.1813 34.3253 42.648 33.792C42.136 33.2587 41.4213 32.992 40.504 32.992C38.3707 32.992 37.304 34.1333 37.304 36.416H36.088V32.512C37.7307 31.8933 39.256 31.584 40.664 31.584Z" fill="white"/>
</svg>
