<svg width="83" height="83" viewBox="0 0 83 83" fill="none" xmlns="http://www.w3.org/2000/svg">
<rect width="83" height="83" rx="41.5" fill="black"/>
<line x1="1" y1="40.5" x2="82" y2="40.5" stroke="white"/>
<line x1="12.8703" y1="69.7147" x2="70.146" y2="12.439" stroke="white"/>
<line x1="13.3536" y1="12.6464" x2="70.6292" y2="69.9221" stroke="white"/>
<line x1="41.5" y1="82" x2="41.5" y2="1" stroke="white"/>
<circle cx="42" cy="41" r="20" fill="black"/>
<path d="M41.144 31.584C44.6213 31.584 46.36 32.9387 46.36 35.648C46.36 37.3973 45.624 39.584 44.152 42.208C42.7013 44.832 40.9093 47.36 38.776 49.792H46.744V52H36.408V50.432C38.52 47.9573 40.28 45.3867 41.688 42.72C43.1173 40.0533 43.832 37.8347 43.832 36.064C43.832 35.04 43.5867 34.24 43.096 33.664C42.6267 33.0667 41.9227 32.768 40.984 32.768C40.0027 32.768 39.224 33.0667 38.648 33.664C38.0933 34.2613 37.816 35.1893 37.816 36.448H36.632V32.512C38.2107 31.8933 39.7147 31.584 41.144 31.584Z" fill="white"/>
</svg>
