<svg width="42" height="42" viewBox="0 0 42 42" fill="none" xmlns="http://www.w3.org/2000/svg">
<path d="M1 6C1 4.67392 1.42143 3.40215 2.17157 2.46447C2.92172 1.52678 3.93913 1 5 1H37C38.0609 1 39.0783 1.52678 39.8284 2.46447C40.5786 3.40215 41 4.67392 41 6V36C41 37.3261 40.5786 38.5979 39.8284 39.5355C39.0783 40.4732 38.0609 41 37 41H5C3.93913 41 2.92172 40.4732 2.17157 39.5355C1.42143 38.5979 1 37.3261 1 36V6Z" stroke="#F4C716" stroke-width="2" stroke-linecap="round" stroke-linejoin="round"/>
<path d="M1 11H41" stroke="#F4C716" stroke-width="2" stroke-linecap="round" stroke-linejoin="round"/>
<path d="M1 21H15C15 23.5 16.2 28.5 21 28.5C25.8 28.5 27 23.5 27 21H41" stroke="#F4C716" stroke-width="2" stroke-linecap="round" stroke-linejoin="round"/>
</svg>
